<svg xmlns="http://www.w3.org/2000/svg" viewBox="0 0 2349.77 2349.77"><defs><style>.cls-1{fill:none;stroke-width:2px;}.cls-1,.cls-2{stroke:#000;stroke-miterlimit:10;}.cls-2{font-size:394.07px;font-family:MyriadPro-Regular, Myriad Pro;}</style></defs><title>a1</title><g id="Layer_2" data-name="Layer 2"><g id="a1"><g id="fol"><g id="g3"><circle id="e1" class="cls-1" cx="1174.89" cy="874.89" r="100"/><circle id="e1-2" data-name="e1" class="cls-1" cx="915.08" cy="1024.89" r="100"/><circle id="e1-3" data-name="e1" class="cls-1" cx="915.08" cy="1324.89" r="100"/><circle id="e1-4" data-name="e1" class="cls-1" cx="1174.89" cy="1474.89" r="100"/><circle id="e1-5" data-name="e1" class="cls-1" cx="1434.7" cy="1324.89" r="100"/><circle id="e1-6" data-name="e1" class="cls-1" cx="1434.7" cy="1024.89" r="100"/><circle id="e1-7" data-name="e1" class="cls-1" cx="1349.36" cy="975.13" r="100"/><circle id="e1-8" data-name="e1" class="cls-1" cx="1261.35" cy="925.12" r="100"/><circle id="e1-9" data-name="e1" class="cls-1" cx="1001.81" cy="975.13" r="100"/><circle id="e1-10" data-name="e1" class="cls-1" cx="915.36" cy="1224.9" r="100"/><circle id="e1-11" data-name="e1" class="cls-1" cx="1088.43" cy="1424.66" r="100"/><circle id="e1-12" data-name="e1" class="cls-1" cx="1347.96" cy="1374.65" r="100"/><circle id="e1-13" data-name="e1" class="cls-1" cx="1434.42" cy="1124.88" r="100"/><circle id="e1-14" data-name="e1" class="cls-1" cx="1089.13" cy="923.91" r="100"/><circle id="e1-15" data-name="e1" class="cls-1" cx="914.66" cy="1123.67" r="100"/><circle id="e1-16" data-name="e1" class="cls-1" cx="1000.42" cy="1374.65" r="100"/><circle id="e1-17" data-name="e1" class="cls-1" cx="1260.65" cy="1425.86" r="100"/><circle id="e1-18" data-name="e1" class="cls-1" cx="1435.12" cy="1226.11" r="100"/></g><g id="g2"><circle id="e1-19" data-name="e1" class="cls-1" cx="1174.89" cy="974.89" r="100"/><circle id="e1-20" data-name="e1" class="cls-1" cx="1001.68" cy="1074.89" r="100"/><circle id="e1-21" data-name="e1" class="cls-1" cx="1001.68" cy="1274.89" r="100"/><circle id="e1-22" data-name="e1" class="cls-1" cx="1174.89" cy="1374.89" r="100"/><circle id="e1-23" data-name="e1" class="cls-1" cx="1348.09" cy="1274.89" r="100"/><circle id="e1-24" data-name="e1" class="cls-1" cx="1348.09" cy="1074.89" r="100"/><circle id="e1-25" data-name="e1" class="cls-1" cx="1263.35" cy="1025.14" r="100"/><circle id="e1-26" data-name="e1" class="cls-1" cx="1089.43" cy="1023.41" r="100"/><circle id="e1-27" data-name="e1" class="cls-1" cx="1000.97" cy="1173.16" r="100"/><circle id="e1-28" data-name="e1" class="cls-1" cx="1086.43" cy="1324.64" r="100"/><circle id="e1-29" data-name="e1" class="cls-1" cx="1260.35" cy="1326.37" r="100"/><circle id="e1-30" data-name="e1" class="cls-1" cx="1348.8" cy="1176.62" r="100"/></g><g id="g1"><circle id="e1-31" data-name="e1" class="cls-1" cx="1174.89" cy="1174.89" r="100"/><circle id="e1-32" data-name="e1" class="cls-1" cx="1174.89" cy="1074.89" r="100"/><circle id="e1-33" data-name="e1" class="cls-1" cx="1088.29" cy="1124.89" r="100"/><circle id="e1-34" data-name="e1" class="cls-1" cx="1088.29" cy="1224.89" r="100"/><circle id="e1-35" data-name="e1" class="cls-1" cx="1174.89" cy="1274.89" r="100"/><circle id="e1-36" data-name="e1" class="cls-1" cx="1261.49" cy="1224.89" r="100"/><circle id="e1-37" data-name="e1" class="cls-1" cx="1261.49" cy="1124.89" r="100"/></g></g><g id="logo"><text class="cls-2" transform="matrix(0.97, 0.23, -0.23, 0.97, 1219.43, 657.54)">s</text><text class="cls-2" transform="matrix(0.86, 0.51, -0.51, 0.86, 1355.11, 684.85)">v</text><text class="cls-2" transform="translate(1501.16 763.34) rotate(50.56)">g</text><text class="cls-2" transform="translate(1622.37 919.88) rotate(64.8)">.</text><text class="cls-2" transform="translate(1655.19 981.8) rotate(75.34)">t</text><text class="cls-2" transform="translate(1684.4 1096.09) rotate(86.39)">i</text><text class="cls-2" transform="translate(1694.18 1174.66) rotate(98.63)">s</text><text class="cls-2" transform="translate(1675.5 1312.89) rotate(114)">s</text><text class="cls-2" transform="translate(1626.94 1441.75) rotate(132.54)">u</text><text class="cls-2" transform="translate(1495.88 1587.47) rotate(152.94)">e</text><text class="cls-2" transform="translate(1348.2 1685.52) rotate(179.05)">m</text><text class="cls-2" transform="translate(1047.11 1681.1) rotate(-155.41)">a</text><text class="cls-2" transform="translate(892.32 1608.65) rotate(-139.64)">t</text><text class="cls-2" transform="translate(802.74 1534.54) rotate(-126.77)">t</text><text class="cls-2" transform="translate(729.96 1449.48) rotate(-110.84)">e</text><text class="cls-2" transform="translate(668.33 1281.02) rotate(-94.63)">r</text><text class="cls-2" transform="translate(659.9 1182.81) rotate(-86.3)">.</text><text class="cls-2" transform="matrix(0.28, -0.96, 0.96, 0.28, 657.53, 1114.36)">c</text><text class="cls-2" transform="matrix(0.58, -0.81, 0.81, 0.58, 694.42, 963.79)">o</text><text class="cls-2" transform="translate(792.57 795.04) rotate(-27.49)">m</text></g></g></g></svg>