<svg id="Layer_1" data-name="Layer 1" xmlns="http://www.w3.org/2000/svg" viewBox="0 0 2560 1600"><defs><style>.cls-1{font-size:394.07px;font-family:MyriadPro-Regular, Myriad Pro;}</style></defs><title>Artboard 1</title><text class="cls-1" transform="matrix(0.97, 0.23, -0.23, 0.97, 1374.54, 332.65)">s</text><text class="cls-1" transform="matrix(0.86, 0.51, -0.51, 0.86, 1510.22, 359.96)">v</text><text class="cls-1" transform="translate(1656.27 438.45) rotate(50.56)">g</text><text class="cls-1" transform="translate(1777.48 594.99) rotate(64.8)">.</text><text class="cls-1" transform="translate(1810.3 656.91) rotate(75.34)">t</text><text class="cls-1" transform="translate(1839.51 771.2) rotate(86.39)">i</text><text class="cls-1" transform="translate(1849.3 849.77) rotate(98.63)">s</text><text class="cls-1" transform="translate(1830.61 988) rotate(114)">s</text><text class="cls-1" transform="translate(1782.05 1116.86) rotate(132.54)">u</text><text class="cls-1" transform="translate(1650.99 1262.58) rotate(152.94)">e</text><text class="cls-1" transform="translate(1503.31 1360.63) rotate(179.05)">m</text><text class="cls-1" transform="translate(1202.22 1356.21) rotate(-155.41)">a</text><text class="cls-1" transform="translate(1047.43 1283.76) rotate(-139.64)">t</text><text class="cls-1" transform="translate(957.85 1209.65) rotate(-126.77)">t</text><text class="cls-1" transform="translate(885.08 1124.59) rotate(-110.84)">e</text><text class="cls-1" transform="translate(823.44 956.13) rotate(-94.63)">r</text><text class="cls-1" transform="translate(815.01 857.92) rotate(-86.3)">.</text><text class="cls-1" transform="matrix(0.28, -0.96, 0.96, 0.28, 812.64, 789.47)">c</text><text class="cls-1" transform="matrix(0.58, -0.81, 0.81, 0.58, 849.53, 638.9)">o</text><text class="cls-1" transform="translate(947.68 470.15) rotate(-27.49)">m</text></svg>